<?xml version="1.0" encoding="utf-8"?>
<!-- Generator: Adobe Illustrator 18.0.0, SVG Export Plug-In . SVG Version: 6.00 Build 0)  -->
<!DOCTYPE svg PUBLIC "-//W3C//DTD SVG 1.1//EN" "http://www.w3.org/Graphics/SVG/1.1/DTD/svg11.dtd" [
	<!ENTITY ns_flows "http://ns.adobe.com/Flows/1.0/">
	<!ENTITY ns_extend "http://ns.adobe.com/Extensibility/1.0/">
	<!ENTITY ns_ai "http://ns.adobe.com/AdobeIllustrator/10.0/">
	<!ENTITY ns_graphs "http://ns.adobe.com/Graphs/1.0/">
	<!ENTITY ns_vars "http://ns.adobe.com/Variables/1.0/">
	<!ENTITY ns_imrep "http://ns.adobe.com/ImageReplacement/1.0/">
	<!ENTITY ns_sfw "http://ns.adobe.com/SaveForWeb/1.0/">
	<!ENTITY ns_custom "http://ns.adobe.com/GenericCustomNamespace/1.0/">
	<!ENTITY ns_adobe_xpath "http://ns.adobe.com/XPath/1.0/">
]>
<svg version="1.1" id="Layer_1" xmlns:x="&ns_extend;" xmlns:i="&ns_ai;" xmlns:graph="&ns_graphs;"
	 xmlns="http://www.w3.org/2000/svg" xmlns:xlink="http://www.w3.org/1999/xlink" xmlns:a="http://ns.adobe.com/AdobeSVGViewerExtensions/3.0/"
	 x="0px" y="0px" viewBox="0 0 300 300" enable-background="new 0 0 300 300" xml:space="preserve">
<metadata>
	<sfw  xmlns="&ns_sfw;">
		<slices></slices>
		<sliceSourceBounds  width="250" height="209.7" y="-254.8" x="25" bottomLeftOrigin="true"></sliceSourceBounds>
	</sfw>
</metadata>
<g>
	<path fill="#A7A5A6" d="M210.8,230.2c-1.3,0-2.3,0.4-3.1,1c-0.8,0.6-1.3,1.2-1.6,1.7c-0.4,0.8-0.7,1.8-0.7,3.1v12.1h-2.8v-20.2h2.5
		v2.9c0.6-1.1,1.4-1.9,2.5-2.5c1-0.5,2.1-0.8,3.1-0.7V230.2z"/>
	<path fill="#A7A5A6" d="M251.2,230.6c-1.2,0-2.2,0.4-2.9,1c-0.7,0.6-1.2,1.1-1.5,1.6c-0.4,0.7-0.6,1.7-0.6,3v11.5h-2.7v-19.2h2.4
		v2.7c0.5-1,1.3-1.8,2.4-2.4c1-0.5,2-0.8,3-0.7V230.6z"/>
	<path fill="#E6321F" d="M45.8,237.8c0,2.8-1,5.3-2.9,7.3c-2,2.1-4.3,3.1-7.2,3.2c-2.9,0.1-5.4-0.9-7.6-3c-2.2-2.1-3.2-4.6-3.1-7.6
		v-0.1v-17.1h2.7v10.2c2-2.3,4.5-3.5,7.4-3.6c2.9-0.1,5.4,0.9,7.5,3C44.8,232.4,45.8,234.9,45.8,237.8z M43.5,237.8
		c0-2.2-0.8-4.1-2.4-5.6c-1.5-1.6-3.4-2.3-5.6-2.3c-2.1,0-3.9,0.8-5.4,2.3c-1.5,1.6-2.3,3.4-2.3,5.6c-0.1,2.3,0.7,4.3,2.3,6
		c1.6,1.7,3.6,2.5,5.8,2.4c2.1-0.1,3.9-1,5.4-2.6C42.8,242,43.5,240,43.5,237.8z"/>
	<path fill="#A7A5A6" d="M153.3,237.8c0,2.8-1,5.3-2.9,7.3c-2,2.1-4.3,3.1-7.2,3.2c-2.9,0.1-5.4-0.9-7.6-3c-2.2-2.1-3.2-4.6-3.1-7.6
		v-0.1v-17.1h2.7v10.2c2-2.3,4.5-3.5,7.4-3.6c2.9-0.1,5.4,0.9,7.5,3C152.3,232.4,153.3,234.9,153.3,237.8z M151,237.8
		c0-2.2-0.8-4.1-2.4-5.6c-1.5-1.6-3.4-2.3-5.6-2.3c-2.1,0-3.9,0.8-5.4,2.3c-1.5,1.6-2.3,3.4-2.3,5.6c-0.1,2.3,0.7,4.3,2.3,6
		c1.6,1.7,3.6,2.5,5.8,2.4c2.1-0.1,3.9-1,5.4-2.6C150.3,242,151,240,151,237.8z"/>
	<path fill="#A7A5A6" d="M181.4,230.3c2.1-2.1,4.6-3.1,7.5-3c3,0.1,5.4,1.3,7.4,3.6v-10.2h2.7v17.1v0.1c0.1,2.9-1,5.4-3.1,7.6
		c-2.2,2.1-4.7,3.1-7.6,3c-2.8-0.1-5.2-1.2-7.2-3.2c-2-2.1-2.9-4.5-2.9-7.3C178.3,234.9,179.3,232.4,181.4,230.3z M182.8,243.6
		c1.5,1.6,3.3,2.5,5.4,2.6c2.3,0.1,4.2-0.7,5.8-2.4c1.6-1.7,2.4-3.7,2.3-6c0-2.2-0.8-4-2.3-5.6c-1.5-1.6-3.3-2.3-5.4-2.3
		c-2.2,0-4.1,0.8-5.6,2.3c-1.5,1.6-2.3,3.4-2.4,5.6C180.6,240,181.3,242,182.8,243.6z"/>
	<path fill="#A7A5A6" d="M222,230.3c2.1-2.1,4.6-3.1,7.5-3c3,0.1,5.4,1.3,7.4,3.6v-10.2h2.7v17.1v0.1c0.1,2.9-1,5.4-3.1,7.6
		c-2.2,2.1-4.7,3.1-7.6,3c-2.8-0.1-5.2-1.2-7.2-3.2c-2-2.1-2.9-4.5-2.9-7.3C218.8,234.9,219.9,232.4,222,230.3z M223.3,243.6
		c1.5,1.6,3.3,2.5,5.4,2.6c2.3,0.1,4.2-0.7,5.8-2.4c1.6-1.7,2.4-3.7,2.3-6c0-2.2-0.8-4-2.3-5.6c-1.5-1.6-3.3-2.3-5.4-2.3
		c-2.2,0-4.1,0.8-5.6,2.3c-1.5,1.6-2.3,3.4-2.4,5.6C221.1,240,221.9,242,223.3,243.6z"/>
	<path fill="#E6321F" d="M69.3,238.8H50.9c0.2,2.1,1.1,3.8,2.6,5.1c1.5,1.3,3.3,2,5.4,2c3.2,0,5.6-1.5,6.9-4.5h2.9
		c-0.8,2.2-2.1,4-3.9,5.3c-1.8,1.3-3.8,2-6.1,2c-2.8,0-5.3-1-7.4-3.1c-2.2-2.1-3.3-4.6-3.3-7.5c-0.1-3.1,1-5.7,3.3-7.9
		c2.2-2.2,4.9-3.2,7.9-3.1c2.7,0.2,5.1,1.3,7.1,3.4c1.9,2.1,2.9,4.4,2.9,6.9V238.8z M66.6,236.3c-0.4-1.9-1.3-3.5-2.7-4.7
		c-1.4-1.2-3.1-1.8-5.1-1.8c-2,0-3.7,0.6-5.2,1.8c-1.5,1.2-2.4,2.8-2.8,4.7H66.6z"/>
	<path fill="#A7A5A6" d="M272.6,238.8h-18.4c0.2,2.1,1.1,3.8,2.6,5.1c1.5,1.3,3.3,2,5.4,2c3.2,0,5.6-1.5,6.9-4.5h2.9
		c-0.8,2.2-2.1,4-3.9,5.3c-1.8,1.3-3.8,2-6.1,2c-2.8,0-5.3-1-7.4-3.1c-2.2-2.1-3.3-4.6-3.3-7.5c-0.1-3.1,1-5.7,3.3-7.9
		c2.2-2.2,4.9-3.2,7.9-3.1c2.7,0.2,5.1,1.3,7.1,3.4c1.9,2.1,2.9,4.4,2.9,6.9V238.8z M269.9,236.3c-0.4-1.9-1.3-3.5-2.7-4.7
		c-1.4-1.2-3.1-1.8-5.1-1.8c-2,0-3.7,0.6-5.2,1.8c-1.5,1.2-2.4,2.8-2.8,4.7H269.9z"/>
	<path fill="#E6321F" d="M92.6,237.9v0.1v10.3h-2.8V245c-2.2,2.6-5,3.8-8.3,3.7c-2.9-0.1-5.3-1.2-7.3-3.3c-2-2.1-3-4.6-3-7.5
		c0-3,1.1-5.6,3.2-7.8c2.2-2.2,4.7-3.2,7.8-3.1c2.9,0.1,5.4,1.2,7.4,3.3C91.7,232.5,92.7,235,92.6,237.9z M89.8,237.7
		c0-2.2-0.8-4.1-2.3-5.6c-1.5-1.6-3.3-2.3-5.4-2.3c-2.2,0-4.1,0.8-5.7,2.3c-1.6,1.6-2.3,3.4-2.4,5.7c0,2.2,0.7,4.1,2.2,5.8
		c1.5,1.6,3.3,2.5,5.4,2.6c2.3,0.1,4.2-0.7,5.9-2.4C89.1,242,89.9,240,89.8,237.7z"/>
	<path fill="#E6321F" d="M103,248.6c-5.2,0-7.8-2.2-7.8-6.6v-21.3H98v6.9h4.9v2.1H98v12c0,3.2,1.6,4.7,4.9,4.7V248.6z"/>
	<path fill="#E6321F" d="M118.5,242.1c0.1,1.8-0.5,3.4-1.9,4.8c-1.4,1.3-3.5,2-5.3,1.8c-1.7-0.1-3.2-0.8-4.3-2.1
		c-1.2-1.3-1.7-2.8-1.7-4.5h2.8v0.7c0,0.7,0.4,1.4,1.1,2.2c0.8,0.7,2,1.1,2.8,1.1c1.1,0,2-0.4,2.7-1c0.6-0.6,0.9-1.4,0.9-2.4
		c0-1.7-1-2.9-3-3.6l-2.8-0.8c-2.5-0.8-3.8-2.5-3.9-5.1c-0.1-1.6,0.5-2.9,1.6-4c1.1-1.1,2.5-1.7,4.1-1.8c1.4-0.1,2.7,0.4,3.9,1.3
		c1.2,1,1.9,2.2,2,3.6v0.6h-2.9v-0.5c0-0.7-0.3-1.3-0.9-1.8c-0.6-0.4-1.3-0.7-2.1-0.7c-0.8,0-1.4,0.3-2,0.8c-0.6,0.5-0.9,1.2-0.9,2
		c-0.1,1.5,0.8,2.5,2.6,3.1l2.4,0.8C116.4,237.6,118.3,239.4,118.5,242.1z"/>
	<g>
		<circle fill="#E6321F" cx="150" cy="119.4" r="22.3"/>
		<path fill="#E6321F" d="M150,45.2c-7.5,0-14.8,1.1-21.6,3.2v38.9c6.1-4,13.4-6.4,21.3-6.4c21.4,0,38.7,17.3,38.7,38.7
			c0,21.3-17.3,38.7-38.7,38.7c-21.3,0-38.7-17.3-38.7-38.7c0-0.8,0-2.3,0-2.3v-61c-21.1,13.1-35.2,36.4-35.2,63.1
			c0,41,33.2,74.2,74.2,74.2c41,0,74.2-33.2,74.2-74.2S191,45.2,150,45.2z"/>
	</g>
	<polygon fill="#919295" points="271,248.6 271,246.6 270.2,246.6 270.2,246.3 272.2,246.3 272.2,246.6 271.4,246.6 271.4,248.6 	
		"/>
	<polygon fill="#919295" points="272.7,248.6 272.7,246.3 273.3,246.3 273.9,248.2 274.4,246.3 275,246.3 275,248.6 274.6,248.6 
		274.6,246.7 274,248.6 273.7,248.6 273,246.6 273,248.6 	"/>
	<polygon fill="#E6321F" points="118.9,248.6 118.9,246.6 118.2,246.6 118.2,246.3 120.1,246.3 120.1,246.6 119.3,246.6 
		119.3,248.6 	"/>
	<polygon fill="#E6321F" points="120.6,248.6 120.6,246.3 121.2,246.3 121.8,248.2 122.3,246.3 122.9,246.3 122.9,248.6 
		122.6,248.6 122.6,246.7 121.9,248.6 121.6,248.6 121,246.6 121,248.6 	"/>
	<g>
		<path fill="#A7A5A6" d="M160.9,254.8H158l3-7.6l-7.7-19.4h2.9l6.4,15.9l6.8-15.9h2.8L160.9,254.8z"/>
	</g>
	<rect x="209" y="243" fill="#919295" width="3.6" height="4.6"/>
</g>
</svg>
