<?xml version="1.0" encoding="UTF-8"?> <!-- Generator: Adobe Illustrator 23.0.3, SVG Export Plug-In . SVG Version: 6.00 Build 0) --> <svg xmlns="http://www.w3.org/2000/svg" xmlns:xlink="http://www.w3.org/1999/xlink" id="Layer_1" x="0px" y="0px" viewBox="0 0 300 300" style="enable-background:new 0 0 300 300;" xml:space="preserve"> <style type="text/css"> .st0{fill-rule:evenodd;clip-rule:evenodd;fill:#231F20;} </style> <g> <path class="st0" d="M25.16,159.13c1.31,0.95,2.76,1.67,4.26,2.15c1.5,0.48,3.06,0.71,4.62,0.71c1.56,0,3.13-0.24,4.65-0.71 c1.51-0.48,2.97-1.2,4.28-2.15c1.31-0.94,2.48-2.11,3.43-3.41c0.95-1.31,1.67-2.75,2.15-4.26c0.48-1.5,0.72-3.06,0.72-4.63 c0-1.57-0.24-3.14-0.72-4.66c-0.48-1.52-1.21-2.97-2.15-4.28c-0.95-1.31-2.11-2.48-3.42-3.42c-1.31-0.95-2.77-1.67-4.28-2.15 c-1.52-0.48-3.09-0.72-4.66-0.72c-1.57,0-3.12,0.24-4.63,0.72c-1.5,0.48-2.95,1.21-4.26,2.15c-1.31,0.95-2.47,2.12-3.41,3.43 c-0.94,1.31-1.67,2.77-2.15,4.28c-0.48,1.51-0.71,3.09-0.71,4.65c0,1.56,0.23,3.12,0.71,4.62c0.48,1.5,1.2,2.95,2.15,4.26 C22.68,157.02,23.85,158.19,25.16,159.13L25.16,159.13L25.16,159.13L25.16,159.13z"></path> <polygon class="st0" points="58.09,72.39 10,72.39 34.09,126.98 58.09,72.39 58.09,72.39 "></polygon> <path class="st0" d="M73.35,203.96c0,1.48-0.29,2.95-0.86,4.32c-0.56,1.36-1.4,2.62-2.45,3.66c-1.04,1.04-2.3,1.88-3.66,2.45 c-1.36,0.56-2.84,0.86-4.32,0.86l0,0h-2.29l0,0c-1.48,0-2.95-0.29-4.32-0.86c-1.36-0.56-2.62-1.4-3.66-2.45 c-1.04-1.04-1.88-2.3-2.45-3.66c-0.56-1.36-0.86-2.84-0.86-4.32l0,0l-0.02-25.59l-26.03-0.04v19.32l0,0 c0,3.93,0.78,7.86,2.28,11.49c1.5,3.63,3.73,6.96,6.51,9.74c2.78,2.78,6.11,5.01,9.74,6.51c3.63,1.5,7.56,2.29,11.49,2.29l0,0 h16.09l0,0c3.93,0,7.86-0.78,11.49-2.29c3.63-1.5,6.96-3.73,9.74-6.51c2.78-2.78,5.01-6.11,6.51-9.74 c1.5-3.63,2.28-7.56,2.28-11.49l0,0V72.5l-25.25,0.04L73.35,203.96L73.35,203.96L73.35,203.96z"></path> <path class="st0" d="M265.7,178.38l-0.02,22.72l0,0c0,1.48-0.29,2.95-0.86,4.32c-0.56,1.36-1.4,2.62-2.45,3.66 c-1.04,1.04-2.3,1.88-3.66,2.45c-1.36,0.56-2.84,0.86-4.32,0.86l0,0h-2.29l0,0c-1.48,0-2.95-0.29-4.32-0.86 c-1.36-0.56-2.62-1.4-3.66-2.45c-1.04-1.04-1.88-2.3-2.45-3.66c-0.56-1.36-0.86-2.84-0.86-4.32l0,0l0.01-128.55l-25.25-0.04 l0.01,151.95h74.38l0.02-46.12L265.7,178.38L265.7,178.38L265.7,178.38z"></path> <path class="st0" d="M194.55,155.61c-1.26-2.99-3.13-5.72-5.33-7.89c-2.2-2.16-4.73-3.76-7.48-4.78c2.31-1.1,4.44-2.58,6.35-4.39 c1.91-1.81,3.59-3.96,4.73-6.38c1.13-2.42,1.73-5.11,1.73-7.8l0,0l0.01-27.66l0,0c0-3.2-0.64-6.4-1.86-9.34 c-1.22-2.95-3.03-5.65-5.28-7.91c-2.25-2.25-4.95-4.06-7.9-5.28c-2.95-1.22-6.15-1.86-9.34-1.86l0,0h-50.21v152.14h52.12l0,0 c3.2,0,6.39-0.64,9.34-1.86c2.95-1.22,5.65-3.03,7.9-5.28c2.25-2.26,4.06-4.96,5.28-7.91c1.22-2.95,1.86-6.15,1.86-9.34 c0-11.66-0.03-23.32,0-34.98C196.47,161.85,195.81,158.6,194.55,155.61L194.55,155.61L194.55,155.61L194.55,155.61z M144.47,85.43 l13.21-0.05l0,0c1.48,0,2.95,0.29,4.32,0.86c1.36,0.56,2.62,1.4,3.66,2.45c1.04,1.04,1.88,2.3,2.45,3.66 c0.56,1.36,0.86,2.84,0.86,4.32l0,0l0.07,30.5l0,0c0,1.23-0.24,2.45-0.71,3.59c-0.47,1.13-1.16,2.17-2.03,3.04 c-0.87,0.87-1.91,1.56-3.04,2.03c-1.13,0.47-2.36,0.71-3.59,0.71l0,0l-15.2,0.06V85.43L144.47,85.43L144.47,85.43z M169.28,204.75 c-0.47,1.13-1.16,2.17-2.03,3.04c-0.87,0.87-1.91,1.56-3.04,2.03c-1.13,0.47-2.36,0.71-3.59,0.71l0,0l-16.15,0.06v-60.33 l14.17-0.04l0,0c1.48,0,2.95,0.29,4.32,0.86c1.36,0.56,2.62,1.4,3.66,2.45c1.04,1.04,1.88,2.3,2.45,3.66 c0.56,1.36,0.86,2.84,0.86,4.32l0,0l0.07,39.66l0,0C169.99,202.39,169.75,203.62,169.28,204.75L169.28,204.75L169.28,204.75 L169.28,204.75z"></path> </g> </svg> 