<?xml version="1.0" encoding="utf-8"?>
<!-- Generator: Adobe Illustrator 18.0.0, SVG Export Plug-In . SVG Version: 6.00 Build 0)  -->
<!DOCTYPE svg PUBLIC "-//W3C//DTD SVG 1.1//EN" "http://www.w3.org/Graphics/SVG/1.1/DTD/svg11.dtd">
<svg version="1.1" id="Layer_1" xmlns="http://www.w3.org/2000/svg" xmlns:xlink="http://www.w3.org/1999/xlink" x="0px" y="0px"
	 viewBox="0 0 300 300" enable-background="new 0 0 300 300" xml:space="preserve">
<polygon fill-rule="evenodd" clip-rule="evenodd" fill="#FFFFFF" points="32.2,-15.7 282.2,-15.7 282.2,234.3 32.2,234.3 
	32.2,-15.7 "/>
<path fill-rule="evenodd" clip-rule="evenodd" fill="#231F20" d="M274.8,122.4c-2.1,0-3.7,1.7-3.7,3.7c0,2.1,1.7,3.7,3.7,3.7
	c2,0,3.7-1.7,3.7-3.7C278.5,124.1,276.8,122.4,274.8,122.4L274.8,122.4L274.8,122.4L274.8,122.4z M274.8,129.4
	c-1.8,0-3.3-1.5-3.3-3.3c0-1.8,1.5-3.2,3.3-3.2c1.8,0,3.2,1.5,3.2,3.2C278,127.9,276.6,129.4,274.8,129.4L274.8,129.4L274.8,129.4
	L274.8,129.4z"/>
<path fill-rule="evenodd" clip-rule="evenodd" fill="#231F20" d="M276.7,125.1c0-0.3-0.2-0.7-0.5-0.9c-0.3-0.2-0.7-0.2-1-0.2l0,0
	h-1.8v4.1h0.5v-1.9h0.9l1.2,1.9h0.6l-1.2-1.9l0,0C276.1,126.2,276.7,125.9,276.7,125.1L276.7,125.1L276.7,125.1L276.7,125.1z
	 M274.7,125.9h-0.8v-1.5h1.2l0,0c0.5,0,1.1,0.1,1.1,0.7C276.2,126,275.3,125.9,274.7,125.9L274.7,125.9L274.7,125.9L274.7,125.9z"/>
<path fill-rule="evenodd" clip-rule="evenodd" fill="#231F20" d="M245.9,145.8l7.6-8.1l0,0c0.4-0.6,0.7-1,0.7-1.4
	c0-0.6-0.5-0.8-2.1-0.8l0,0h-1.9v-5.1h20.7v5.1h-2.7l0,0c-3.1,0-3.7,0.5-8.1,6l0,0l-12,12.9v7.9l0,0c0,2,1,2.7,3.9,2.7l0,0h4.5v4.9
	h-28.9V165h4.5l0,0c2.9,0,3.9-0.7,3.9-2.7l0,0v-7.9l-14.1-15.6l0,0c-2.3-2.7-2-3.3-8.5-3.3l0,0v-5.1h26.2v5.1h-1.9l0,0
	c-1.9,0-2.7,0.4-2.7,1.1c0,0.6,0.6,1.1,0.9,1.5l0,0l7.1,7.8l0,0C243.9,146.8,245,146.9,245.9,145.8L245.9,145.8L245.9,145.8
	L245.9,145.8z"/>
<path fill-rule="evenodd" clip-rule="evenodd" fill="#231F20" d="M70.4,130.4h6.3v14.2h-5.8l0,0c-0.5-2.8-2.3-3.9-3.9-5.4
	c-2.9-2.7-9.3-4.9-14.6-4.9c-6.9,0-12.7,2.1-12.7,5.3c0,8.7,39.4,1.8,39.4,18.3c0,8.6-8.4,13.4-23.6,13.4c-5.2,0-13.2-1.6-17.9-4.1
	c-1.5-0.8-2.1,0.8-2.4,2.9l0,0h-6.5v-14.7h5.9l0,0c1.3,3.7,3.1,4.5,4.7,6c2.8,2.6,9.6,4.5,15.8,4.4c9.3-0.1,12.6-2.1,12.6-5.1
	c0-3-3.2-3.7-13.4-5.3l0,0l-8.7-1.4l0,0c-9.8-1.5-16.9-3.7-16.9-11.5c0-8.1,9-13.2,23.3-13.2c6,0,11.1,0.8,15.9,3.5
	C69.2,133.6,70.4,133.7,70.4,130.4L70.4,130.4L70.4,130.4L70.4,130.4z"/>
<path fill-rule="evenodd" clip-rule="evenodd" fill="#231F20" d="M193.5,154.2l0.1-15.8l0,0c0-2.1-1.1-2.8-4.2-2.8l0,0h-3.6v-4.9h23
	v4.9h-3l0,0c-3.1,0-4.2,0.7-4.2,2.8l0,0v31.8l-9-0.1l-29.2-27.7v20.1l0,0c0,2,1.1,2.8,4.2,2.8l0,0h4v4.9h-23.9v-4.9h4l0,0
	c3.1,0,4.2-0.8,4.2-2.8l0,0v-24.2l0,0c0-2.1-1.1-2.8-4.2-2.8l0,0h-4v-4.9h20.7L193.5,154.2L193.5,154.2L193.5,154.2z"/>
<path fill-rule="evenodd" clip-rule="evenodd" fill="#231F20" d="M116.3,128.9c-18.4,0-29.9,8.1-29.9,21.2
	c0,12.8,11.3,20.9,29.3,20.9c19.1,0,30.2-7.9,30.2-21.5C146,137.2,134,128.9,116.3,128.9L116.3,128.9L116.3,128.9L116.3,128.9z
	 M115.9,165.8c-10.2,0-16-5.9-16-16c0-9.9,6.1-15.8,16.5-15.8c10,0,15.8,6,15.8,16.2C132.3,160.1,126.3,165.8,115.9,165.8
	L115.9,165.8L115.9,165.8L115.9,165.8z"/>
</svg>
